<?xml version="1.0" encoding="UTF-8" standalone="no"?>
<!-- Creator: CorelDRAW -->

<svg
   xmlns:dc="http://purl.org/dc/elements/1.1/"
   xmlns:cc="http://creativecommons.org/ns#"
   xmlns:rdf="http://www.w3.org/1999/02/22-rdf-syntax-ns#"
   xmlns:svg="http://www.w3.org/2000/svg"
   xmlns="http://www.w3.org/2000/svg"
   xmlns:sodipodi="http://sodipodi.sourceforge.net/DTD/sodipodi-0.dtd"
   xmlns:inkscape="http://www.inkscape.org/namespaces/inkscape"
   xml:space="preserve"
   width="105.18866mm"
   height="105.18866mm"
   version="1.1"
   style="clip-rule:evenodd;fill-rule:evenodd;image-rendering:optimizeQuality;shape-rendering:geometricPrecision;text-rendering:geometricPrecision"
   viewBox="0 0 528.98618 546.00002"
   id="svg16"
   sodipodi:docname="игровые сервисы_1.svg"
   inkscape:version="0.92.4 (5da689c313, 2019-01-14)"><metadata
   id="metadata20"><rdf:RDF><cc:Work
       rdf:about=""><dc:format>image/svg+xml</dc:format><dc:type
         rdf:resource="http://purl.org/dc/dcmitype/StillImage" /><dc:title></dc:title></cc:Work></rdf:RDF></metadata><sodipodi:namedview
   pagecolor="#ffffff"
   bordercolor="#666666"
   borderopacity="1"
   objecttolerance="10"
   gridtolerance="10"
   guidetolerance="10"
   inkscape:pageopacity="0"
   inkscape:pageshadow="2"
   inkscape:window-width="1118"
   inkscape:window-height="707"
   id="namedview18"
   showgrid="false"
   fit-margin-top="0"
   fit-margin-left="0"
   fit-margin-right="0"
   fit-margin-bottom="0"
   inkscape:zoom="0.59470518"
   inkscape:cx="198.60516"
   inkscape:cy="199.14576"
   inkscape:window-x="0"
   inkscape:window-y="0"
   inkscape:window-maximized="0"
   inkscape:current-layer="svg16" />
 <defs
   id="defs4">
  <style
   type="text/css"
   id="style2">
   <![CDATA[
    .fil1 {fill:#FEFEFE}
    .fil0 {fill:#0195E4}
   ]]>
  </style>
 </defs>
 <g
   id="Слой_x0020_1"
   transform="translate(-8.50692)">
  <metadata
   id="CorelCorpID_0Corel-Layer" />
  <g
   id="_771145744">
   <circle
   class="fil0"
   cx="273"
   cy="273"
   r="273"
   id="circle7"
   style="fill:#0195e4" />
   <g
   id="g12">
    <g
   id="surface1">
     <path
   class="fil1"
   d="m 413,250 c 0,0 31,2 31,-16 0,-24 -41,-45 -41,-45 0,0 7,-13 11,-21 4,-8 15,-37 16,-44 1,-8 -1,-11 -1,-11 -3,18 -32,71 -35,72 -29,-13 -68,-17 -68,-17 0,0 -39,-82 -76,-82 -36,0 -36,70 -36,70 0,0 -10,-20 -23,-20 -19,0 -25,29 -25,60 -37,0 -68,8 -71,9 -3,1 -12,7 -8,6 8,-3 47,-8 80,-6 2,30 19,68 19,68 0,0 -37,53 -37,91 0,10 5,28 31,28 22,0 47,-13 51,-16 -4,6 -7,17 -7,22 0,5 3,16 20,16 22,0 46,-16 46,-16 0,0 23,38 43,55 5,5 10,6 10,6 0,0 -19,-19 -45,-67 24,-15 49,-50 49,-50 0,0 3,0 26,0 35,0 86,-8 86,-36 0,-29 -46,-56 -46,-56 z m 4,-17 c 0,10 -10,10 -10,10 l -7,1 c 0,0 -14,-8 -23,-11 0,0 13,-21 17,-27 2,2 23,15 23,27 z M 268,127 c 17,0 41,40 41,40 0,0 -38,-3 -68,15 1,-29 10,-55 27,-55 z m -66,32 c 5,0 10,7 12,12 0,4 2,25 2,25 l -31,-1 c 0,-28 11,-36 17,-36 z m -4,193 c -16,0 -20,-9 -20,-18 0,-19 15,-45 15,-45 0,0 17,35 47,51 -14,8 -27,12 -42,12 z m 55,38 c -12,0 -13,-8 -13,-10 0,-5 4,-12 4,-12 0,0 20,-13 21,-14 l 15,27 c 0,0 -15,9 -27,9 z m 37,-15 c -7,-13 -13,-26 -13,-26 0,0 30,2 46,-14 -10,4 -26,10 -44,8 38,-34 60,-58 79,-83 -1,-2 -10,-8 -12,-9 -11,13 -56,61 -97,84 -52,-28 -63,-111 -64,-129 l 29,3 c 0,0 -11,19 -11,33 0,14 2,14 2,14 0,0 -1,-24 14,-43 12,61 23,92 33,111 4,-2 13,-6 13,-6 0,0 -26,-76 -25,-127 12,-6 30,-13 50,-13 52,0 94,23 94,23 l -16,23 c 0,0 -15,-27 -36,-31 11,8 24,18 30,34 -43,-17 -96,-26 -113,-28 -1,6 -1,15 -1,15 0,0 70,13 121,42 0,64 -70,113 -79,119 z m 66,-48 c 0,0 22,-28 22,-66 0,0 35,22 35,43 0,24 -57,23 -57,23 z"
   id="path9"
   inkscape:connector-curvature="0"
   style="fill:#fefefe" />
    </g>
   </g>
  </g>
 </g>
</svg>