<?xml version="1.0" encoding="UTF-8" standalone="no"?>
<!-- Creator: CorelDRAW -->

<svg
   xmlns:dc="http://purl.org/dc/elements/1.1/"
   xmlns:cc="http://creativecommons.org/ns#"
   xmlns:rdf="http://www.w3.org/1999/02/22-rdf-syntax-ns#"
   xmlns:svg="http://www.w3.org/2000/svg"
   xmlns="http://www.w3.org/2000/svg"
   xmlns:sodipodi="http://sodipodi.sourceforge.net/DTD/sodipodi-0.dtd"
   xmlns:inkscape="http://www.inkscape.org/namespaces/inkscape"
   xml:space="preserve"
   width="104.94363mm"
   height="104.94363mm"
   version="1.1"
   style="clip-rule:evenodd;fill-rule:evenodd;image-rendering:optimizeQuality;shape-rendering:geometricPrecision;text-rendering:geometricPrecision"
   viewBox="0 0 1941.5536 2004"
   id="svg16"
   sodipodi:docname="игровые сервисы_5.svg"
   inkscape:version="0.92.4 (5da689c313, 2019-01-14)"><metadata
   id="metadata20"><rdf:RDF><cc:Work
       rdf:about=""><dc:format>image/svg+xml</dc:format><dc:type
         rdf:resource="http://purl.org/dc/dcmitype/StillImage" /><dc:title></dc:title></cc:Work></rdf:RDF></metadata><sodipodi:namedview
   pagecolor="#ffffff"
   bordercolor="#666666"
   borderopacity="1"
   objecttolerance="10"
   gridtolerance="10"
   guidetolerance="10"
   inkscape:pageopacity="0"
   inkscape:pageshadow="2"
   inkscape:window-width="721"
   inkscape:window-height="480"
   id="namedview18"
   showgrid="false"
   fit-margin-top="0"
   fit-margin-left="0"
   fit-margin-right="0"
   fit-margin-bottom="0"
   inkscape:zoom="0.29735259"
   inkscape:cx="374.85387"
   inkscape:cy="0.6661255"
   inkscape:window-x="0"
   inkscape:window-y="0"
   inkscape:window-maximized="0"
   inkscape:current-layer="svg16" />
 <defs
   id="defs4">
  <style
   type="text/css"
   id="style2">
   <![CDATA[
    .fil1 {fill:#FEFEFE}
    .fil0 {fill:#DB3C00}
   ]]>
  </style>
 </defs>
 <g
   id="Слой_x0020_1"
   transform="translate(-31.2232)">
  <metadata
   id="CorelCorpID_0Corel-Layer" />
  <g
   id="_771156528">
   <circle
   class="fil0"
   cx="1002"
   cy="1002"
   r="1002"
   id="circle7"
   style="fill:#db3c00" />
   <g
   id="g12">
    <g
   id="surface1">
     <path
   class="fil1"
   d="m 1516,1003 c 0,0 0,0 0,0 0,-1 0,-1 0,-1 0,-2 0,-4 0,-7 -4,-280 -232,-506 -514,-506 -20,0 -41,1 -61,4 5,-71 60,-146 60,-146 6,-12 -8,-24 -19,-17 -94,55 -493,226 -493,672 0,0 0,0 0,1 0,283 230,513 513,513 21,0 42,-1 62,-4 -6,71 -60,146 -60,146 -6,12 8,24 19,17 94,-55 493,-220 493,-672 z m -321,0 c 0,106 -86,192 -193,192 -106,0 -192,-86 -192,-192 0,-107 86,-193 192,-193 107,0 193,86 193,193 z"
   id="path9"
   inkscape:connector-curvature="0"
   style="fill:#fefefe" />
    </g>
   </g>
  </g>
 </g>
</svg>