<?xml version="1.0" encoding="UTF-8" standalone="no"?>
<!-- Creator: CorelDRAW -->

<svg
   xmlns:dc="http://purl.org/dc/elements/1.1/"
   xmlns:cc="http://creativecommons.org/ns#"
   xmlns:rdf="http://www.w3.org/1999/02/22-rdf-syntax-ns#"
   xmlns:svg="http://www.w3.org/2000/svg"
   xmlns="http://www.w3.org/2000/svg"
   xmlns:sodipodi="http://sodipodi.sourceforge.net/DTD/sodipodi-0.dtd"
   xmlns:inkscape="http://www.inkscape.org/namespaces/inkscape"
   xml:space="preserve"
   width="104.996mm"
   height="104.996mm"
   version="1.1"
   style="clip-rule:evenodd;fill-rule:evenodd;image-rendering:optimizeQuality;shape-rendering:geometricPrecision;text-rendering:geometricPrecision"
   viewBox="0 0 1951.242 2014"
   id="svg13"
   sodipodi:docname="игровые сервисы_8.svg"
   inkscape:version="0.92.4 (5da689c313, 2019-01-14)"><metadata
   id="metadata17"><rdf:RDF><cc:Work
       rdf:about=""><dc:format>image/svg+xml</dc:format><dc:type
         rdf:resource="http://purl.org/dc/dcmitype/StillImage" /><dc:title></dc:title></cc:Work></rdf:RDF></metadata><sodipodi:namedview
   pagecolor="#ffffff"
   bordercolor="#666666"
   borderopacity="1"
   objecttolerance="10"
   gridtolerance="10"
   guidetolerance="10"
   inkscape:pageopacity="0"
   inkscape:pageshadow="2"
   inkscape:window-width="721"
   inkscape:window-height="480"
   id="namedview15"
   showgrid="false"
   fit-margin-top="0"
   fit-margin-left="0"
   fit-margin-right="0"
   fit-margin-bottom="0"
   inkscape:zoom="0.10513002"
   inkscape:cx="890.45244"
   inkscape:cy="-744.20648"
   inkscape:window-x="0"
   inkscape:window-y="0"
   inkscape:window-maximized="0"
   inkscape:current-layer="svg13" />
 <defs
   id="defs4">
  <style
   type="text/css"
   id="style2">
   <![CDATA[
    .fil1 {fill:#FEFEFE}
    .fil0 {fill:#61A523}
   ]]>
  </style>
 </defs>
 <g
   id="Слой_x0020_1"
   transform="translate(-31.379)">
  <metadata
   id="CorelCorpID_0Corel-Layer" />
  <g
   id="_771148688">
   <circle
   class="fil0"
   cx="1007"
   cy="1007"
   r="1007"
   id="circle7"
   style="fill:#61a523" />
   <path
   class="fil1"
   d="m 1006,345 c -124,0 -242,35 -339,95 -7,2 -17,11 -27,19 87,-69 290,70 349,112 10,7 23,7 33,0 59,-42 262,-181 350,-112 -10,-8 -21,-17 -28,-19 -97,-60 -215,-95 -338,-95 z M 603,518 c -46,0 -80,37 -80,37 -109,118 -178,277 -178,452 0,365 296,662 661,662 192,0 367,-84 488,-216 0,0 -15,-86 -104,-213 -99,-150 -301,-339 -365,-397 -11,-10 -28,-10 -39,0 -48,45 -174,169 -202,201 -66,70 -249,288 -261,412 0,0 -40,-98 49,-322 55,-135 227,-336 311,-423 11,-12 11,-30 -1,-41 C 854,644 790,599 732,564 692,538 646,521 603,518 Z m 796,0 c -18,0 -140,38 -269,152 -12,11 -12,30 -1,42 46,48 174,171 250,292 95,156 152,279 118,449 106,-118 172,-273 172,-446 -3,-173 -69,-331 -178,-449 -3,-3 -6,-6 -9,-9 -23,-25 -57,-31 -83,-31 z"
   id="path9"
   inkscape:connector-curvature="0"
   style="fill:#fefefe" />
  </g>
 </g>
</svg>