<?xml version="1.0" encoding="utf-8"?>
<!-- Generator: Adobe Illustrator 22.1.0, SVG Export Plug-In . SVG Version: 6.00 Build 0)  -->
<svg version="1.1" id="Layer_1" xmlns="http://www.w3.org/2000/svg" xmlns:xlink="http://www.w3.org/1999/xlink" x="0px" y="0px"
	 viewBox="0 0 473.9 473.9" style="enable-background:new 0 0 473.9 473.9;" xml:space="preserve">
<style type="text/css">
	.st0{fill:#2AA1E0;}
	.st1{fill:#FFFFFF;}
</style>
<circle class="st0" cx="237" cy="237" r="237"/>
<g>
	<path class="st1" d="M361.2,184.7h-7.9v86.8c0,13.5-7.9,25.7-23.7,25.7H175v4.1c0,12,13.6,24,27.6,24h118.2l45.2,26.6l-6.6-26.6
		h1.7c14,0,20.2-12,20.2-24v-96.1C381.5,193.3,375.2,184.7,361.2,184.7z"/>
	<path class="st1" d="M306.6,124.3H127c-15.8,0-34,14-34,27.6v108.8c0,12.5,15.4,21.5,30.2,22.8l-9.6,36.5l61.6-36.3h131.4
		c15.8,0,30.4-9.6,30.4-23.1v-88.1v-20.8C337,138.4,322.4,124.3,306.6,124.3z"/>
</g>
</svg>
