<?xml version="1.0" encoding="utf-8"?>
<!-- Generator: Adobe Illustrator 22.1.0, SVG Export Plug-In . SVG Version: 6.00 Build 0)  -->
<svg version="1.1" id="Слой_1" xmlns="http://www.w3.org/2000/svg" xmlns:xlink="http://www.w3.org/1999/xlink" x="0px" y="0px"
	 viewBox="0 0 52 52" style="enable-background:new 0 0 52 52;" xml:space="preserve">
<g id="surface1_1_">
	<path d="M45.3,23c0,0,4.2,0.2,4.2-2.3c0-3.2-5.6-6.1-5.6-6.1s0.9-1.9,1.4-2.9c0.5-1,2.1-5.1,2.2-6c0.2-1.2-0.1-1.5-0.1-1.5
		c-0.4,2.5-4.4,9.7-4.7,9.9c-4-1.9-9.4-2.4-9.4-2.4S28,0.6,23,0.6c-5,0-4.9,9.6-4.9,9.6s-1.4-2.7-3.2-2.7c-2.6,0-3.4,3.9-3.4,8.1
		c-5.1,0-9.3,1.1-9.7,1.2c-0.4,0.1-1.6,1-1,0.9c1.1-0.4,6.3-1.2,10.9-0.8c0.3,4,2.6,9.2,2.6,9.2s-5,7.3-5,12.5
		c0,1.4,0.6,3.9,4.2,3.9c3,0,6.4-1.8,7-2.2c-0.6,0.8-1,2.3-1,3c0,0.6,0.3,2.2,2.7,2.2c3,0,6.3-2.3,6.3-2.3s3.1,5.2,5.8,7.6
		c0.7,0.6,1.4,0.8,1.4,0.8s-2.7-2.6-6.2-9.2c3.3-2,6.7-6.8,6.7-6.8s0.4,0,3.5,0c4.9,0,11.8-1,11.8-4.9C51.5,26.6,45.3,23,45.3,23z
		 M45.9,20.6c0,1.4-1.3,1.4-1.3,1.4l-1,0.1c0,0-1.9-1-3.1-1.5c0,0,1.8-2.8,2.2-3.6C42.9,17.2,45.9,19,45.9,20.6z M25.5,6.2
		c2.3,0,5.6,5.4,5.6,5.4s-5.1-0.5-9.3,2C21.8,9.7,23.1,6.2,25.5,6.2z M16.4,10.6c0.7,0,1.4,0.9,1.7,1.6c0,0.5,0.3,3.4,0.3,3.4
		l-4.2-0.2C14.2,11.6,15.7,10.6,16.4,10.6z M16,36.9c-2.3,0-2.8-1.3-2.8-2.4c0-2.6,2.1-6.3,2.1-6.3s2.3,4.9,6.4,7
		C19.6,36.4,18,36.9,16,36.9z M23.4,42.1c-1.6,0-1.8-1-1.8-1.3c0-0.8,0.6-1.6,0.6-1.6s2.7-1.8,2.9-2l2,3.7
		C27.1,40.8,25,42.1,23.4,42.1z M28.4,40c-1-1.7-1.7-3.5-1.7-3.5s4,0.3,6.2-2c-1.3,0.6-3.5,1.4-6,1.1c5.2-4.6,8.3-7.9,10.9-11.4
		c-0.2-0.3-1.4-1.1-1.7-1.2c-1.6,1.9-7.6,8.4-13.2,11.6c-7.1-3.9-8.6-15.3-8.7-17.6l3.9,0.4c0,0-1.5,2.6-1.5,4.5c0,1.9,0.2,2,0.2,2
		s0-3.3,2-5.9c1.6,8.3,3.2,12.6,4.5,15.1c0.6-0.3,1.8-0.8,1.8-0.8s-3.6-10.3-3.4-17.3c1.6-0.9,4-1.8,6.7-1.8
		c7.1,0,12.9,3.1,12.9,3.1l-2.2,3.1c0,0-2-3.6-4.8-4.3c1.5,1.1,3.2,2.6,4,4.7c-5.9-2.3-13.1-3.5-15.4-3.8c-0.2,0.8-0.2,2.1-0.2,2.1
		s9.6,1.8,16.6,5.8C39.3,32.5,29.8,39.2,28.4,40z M37.5,33.5c0,0,3-3.9,2.9-9.1c0,0,4.8,3,4.8,5.9C45.3,33.5,37.5,33.5,37.5,33.5z"
		/>
</g>
</svg>
