<?xml version="1.0" encoding="utf-8"?>
<!-- Generator: Adobe Illustrator 22.1.0, SVG Export Plug-In . SVG Version: 6.00 Build 0)  -->
<svg version="1.1" id="Слой_1" xmlns="http://www.w3.org/2000/svg" xmlns:xlink="http://www.w3.org/1999/xlink" x="0px" y="0px"
	 viewBox="0 0 52 52" style="enable-background:new 0 0 52 52;" xml:space="preserve">
<path d="M25.9,0.4c-4.8,0-9.4,1.3-13.2,3.7c-0.2,0.1-0.7,0.4-1.1,0.7C15.1,2.1,23,7.5,25.3,9.1c0.4,0.3,0.9,0.3,1.3,0
	c2.3-1.6,10.2-7,13.6-4.3c-0.4-0.3-0.8-0.7-1.1-0.7C35.3,1.7,30.7,0.4,25.9,0.4z M10.2,7.1c-1.8,0-3.1,1.5-3.1,1.5
	c-4.2,4.6-6.9,10.8-6.9,17.6c0,14.2,11.5,25.8,25.7,25.8c7.5,0,14.3-3.2,19-8.4c0,0-0.6-3.4-4-8.3C37,29.4,29.2,22,26.7,19.7
	c-0.4-0.4-1.1-0.4-1.5,0c-1.9,1.7-6.8,6.6-7.9,7.8c-2.6,2.7-9.7,11.2-10.2,16c0,0-1.6-3.8,1.9-12.6c2.2-5.3,8.9-13.1,12.1-16.5
	c0.4-0.5,0.4-1.2,0-1.6c-1.1-1-3.6-2.8-5.8-4.1C13.7,7.9,11.9,7.2,10.2,7.1z M41.3,7.1c-0.7,0-5.5,1.5-10.5,5.9
	c-0.5,0.4-0.5,1.2-0.1,1.6c1.8,1.9,6.8,6.7,9.7,11.4c3.7,6.1,5.9,10.9,4.6,17.5c4.1-4.6,6.7-10.6,6.7-17.4
	c-0.1-6.7-2.7-12.9-6.9-17.5c-0.1-0.1-0.2-0.2-0.3-0.3C43.6,7.3,42.3,7.1,41.3,7.1z"/>
</svg>
