<?xml version="1.0" encoding="utf-8"?>
<!-- Generator: Adobe Illustrator 22.1.0, SVG Export Plug-In . SVG Version: 6.00 Build 0)  -->
<svg version="1.1" id="Слой_2" xmlns="http://www.w3.org/2000/svg" xmlns:xlink="http://www.w3.org/1999/xlink" x="0px" y="0px"
	 viewBox="0 0 52 52" style="enable-background:new 0 0 52 52;" xml:space="preserve">
<g>
	<g>
		<g>
			<path d="M22.6,0.7H8.7c-4.5,0-8.1,3.6-8.1,8.1v34.7c0,4.5,3.6,8.1,8.1,8.1h13.9c0.6,0,1.2-0.5,1.2-1.2V1.9
				C23.8,1.2,23.2,0.7,22.6,0.7z M12.2,21.5c-3.2,0-5.8-2.6-5.8-5.8S9,10,12.2,10s5.8,2.6,5.8,5.8S15.4,21.5,12.2,21.5z"/>
			<path d="M43.4,0.7H29.5c-0.6,0-1.2,0.5-1.2,1.2v48.5c0,0.6,0.5,1.2,1.2,1.2h13.9c4.5,0,8.1-3.6,8.1-8.1V8.8
				C51.5,4.3,47.9,0.7,43.4,0.7z M39.9,35.4c-3.2,0-5.8-2.6-5.8-5.8s2.6-5.8,5.8-5.8c3.2,0,5.8,2.6,5.8,5.8S43.1,35.4,39.9,35.4z"/>
		</g>
	</g>
</g>
</svg>
