<?xml version="1.0" encoding="utf-8"?>
<!-- Generator: Adobe Illustrator 22.1.0, SVG Export Plug-In . SVG Version: 6.00 Build 0)  -->
<svg version="1.1" id="Слой_1" xmlns="http://www.w3.org/2000/svg" xmlns:xlink="http://www.w3.org/1999/xlink" x="0px" y="0px"
	 viewBox="0 0 52 52" style="enable-background:new 0 0 52 52;" xml:space="preserve">
<g>
	<path id="Steam" d="M47.8,19.6c0,2.6-2.1,4.7-4.7,4.7c-2.6,0-4.7-2.1-4.7-4.7s2.1-4.7,4.7-4.7C45.7,14.9,47.8,17,47.8,19.6z
		 M45.9,27.6l-5.7,4.9c0.1,0.4,0.1,0.8,0.1,1.2c0,4.2-3.4,7.5-7.6,7.5c-3.6,0-6.6-2.5-7.4-5.9l-14.2-4.8c-1.1,0.8-2.5,1.4-4,1.4
		c-3.7,0-6.7-3-6.7-6.7c0-3.7,3-6.7,6.7-6.7c3.2,0,5.8,2.2,6.5,5.2l13.7,4.6c1.3-1.3,3.2-2.2,5.2-2.2l2.1-6.2c0-0.1,0-0.2,0-0.4
		c0-4.7,3.8-8.5,8.5-8.5c4.7,0,8.5,3.8,8.5,8.5C51.6,23.3,49.2,26.4,45.9,27.6z M11.3,23c-0.8-1.4-2.3-2.4-4.1-2.4
		c-2.6,0-4.7,2.1-4.7,4.7s2.1,4.7,4.7,4.7c0.5,0,0.9-0.1,1.4-0.2l-2.2-0.8c-1.8-1-2.5-3.2-1.5-5c1-1.8,3.2-2.5,5-1.5L11.3,23z
		 M36.4,19.6c0,3.7,3,6.6,6.6,6.6c3.7,0,6.6-3,6.6-6.6c0-3.7-3-6.6-6.6-6.6C39.4,13,36.4,15.9,36.4,19.6z M36.5,34.3
		c0-2.8-2.3-5-5.1-5c-0.4,0-0.8,0-1.1,0.1l2.8,1c1.8,1,2.5,3.2,1.5,5c-1,1.8-3.2,2.5-5,1.5l-3-1c0.6,2.1,2.6,3.5,4.8,3.5
		C34.3,39.4,36.5,37.1,36.5,34.3z"/>
</g>
</svg>
