<?xml version="1.0" encoding="utf-8"?>
<!-- Generator: Adobe Illustrator 22.1.0, SVG Export Plug-In . SVG Version: 6.00 Build 0)  -->
<svg version="1.1" id="Слой_1" xmlns="http://www.w3.org/2000/svg" xmlns:xlink="http://www.w3.org/1999/xlink" x="0px" y="0px"
	 viewBox="0 0 52 52" style="enable-background:new 0 0 52 52;" xml:space="preserve">
<g id="surface1">
	<path d="M26.1,6.4c-1.1,0-2.2,0.1-3.3,0.3c1-2.3,2.2-4.1,3.3-5.2c0.5-0.5,0-1.3-0.6-1.1c-9.6,2-19,13.5-19,25.7
		c0,10.8,8.8,19.6,19.6,19.6c1.1,0,2.2-0.1,3.3-0.3c-1,2.3-2.2,4.1-3.3,5.2c-0.5,0.5,0,1.3,0.6,1.1c9.6-2,19-13.5,19-25.7
		C45.7,15.2,36.9,6.4,26.1,6.4z M26.1,33.4c-4.1,0-7.4-3.3-7.4-7.4s3.3-7.4,7.4-7.4s7.4,3.3,7.4,7.4S30.1,33.4,26.1,33.4z"/>
</g>
</svg>
