<?xml version="1.0" encoding="utf-8"?>
<!-- Generator: Adobe Illustrator 22.1.0, SVG Export Plug-In . SVG Version: 6.00 Build 0)  -->
<svg version="1.1" id="Слой_1" xmlns="http://www.w3.org/2000/svg" xmlns:xlink="http://www.w3.org/1999/xlink" x="0px" y="0px"
	 viewBox="0 0 364 364" style="enable-background:new 0 0 364 364;" xml:space="preserve">
<g>
	<path d="M328.6,230.1c5.2-16.1,29.6-29.8,29.6-47.6c0-17.8-24.3-31.6-29.6-47.6c-5.4-16.7,6-42-4.1-55.9
		c-10.2-14-37.9-10.9-52-21.1c-13.9-10.1-19.5-37.5-36.1-42.9c-16.1-5.2-36.6,13.5-54.5,13.5s-38.4-18.7-54.5-13.5
		c-16.7,5.4-22.3,32.8-36.1,42.9c-14,10.2-41.8,7.1-52,21.1c-10.1,13.9,1.3,39.3-4.1,55.9c-5.2,16.1-29.6,29.8-29.6,47.6
		c0,17.8,24.3,31.6,29.6,47.6c5.4,16.7-6,42.1,4.1,55.9c10.2,14,37.9,10.9,52,21.1c13.9,10.1,19.5,37.5,36.1,42.9
		c16.1,5.2,36.6-13.5,54.5-13.5s38.4,18.7,54.5,13.5c16.7-5.4,22.3-32.8,36.1-42.9c14-10.2,41.8-7.1,52-21.1
		C334.6,272.2,323.2,246.8,328.6,230.1z M210.7,272c18.3-35.6,4.7-83.5-27-105.7c2.1,9.5-0.5,34.4-14.6,50
		c3.2-16.1-4.8-26.5-4.8-26.5s-2.6,14.6-12.7,29.4c-9.2,13.5-15.6,27.8-3.6,52.8c-38.2-21.5-48.3-41.9-42.5-69.7
		c4.2-20.6,19.9-37.3,21.3-57.8c5.9,10.8,6.6,18.6,7.3,29.9c18.9-23.1,38.5-54.1,34.2-82.4c0,0,35.8,11.3,50.3,66.2
		c8.5-7.6,7.8-23.3,3.5-32.6C234.9,134.8,307.8,217,210.7,272z"/>
</g>
</svg>
