<?xml version="1.0" encoding="utf-8"?>
<!-- Generator: Adobe Illustrator 22.1.0, SVG Export Plug-In . SVG Version: 6.00 Build 0)  -->
<svg version="1.1" id="Слой_1" xmlns="http://www.w3.org/2000/svg" xmlns:xlink="http://www.w3.org/1999/xlink" x="0px" y="0px"
	 viewBox="0 0 364 364" style="enable-background:new 0 0 364 364;" xml:space="preserve">
<g>
	<path d="M328.6,230.1c5.2-16.1,29.6-29.8,29.6-47.6c0-17.8-24.3-31.6-29.6-47.6c-5.4-16.7,6-42-4.1-55.9
		c-10.2-14-37.9-10.9-52-21.1c-13.9-10.1-19.5-37.5-36.1-42.9c-16.1-5.2-36.6,13.5-54.5,13.5s-38.4-18.7-54.5-13.5
		c-16.7,5.4-22.3,32.8-36.1,42.9c-14,10.2-41.8,7.1-52,21.1c-10.1,13.9,1.3,39.3-4.1,55.9c-5.2,16.1-29.6,29.8-29.6,47.6
		c0,17.8,24.3,31.6,29.6,47.6c5.4,16.7-6,42.1,4.1,55.9c10.2,14,37.9,10.9,52,21.1c13.9,10.1,19.5,37.5,36.1,42.9
		c16.1,5.2,36.6-13.5,54.5-13.5s38.4,18.7,54.5,13.5c16.7-5.4,22.3-32.8,36.1-42.9c14-10.2,41.8-7.1,52-21.1
		C334.6,272.2,323.2,246.8,328.6,230.1z M175.4,271.7l-83.4-27V125l83.4,27V271.7z M106.1,116.2l76.7-24.7l76.7,24.7L182.8,141
		L106.1,116.2z M273.5,244.7l-85.3,27.6V152.7l85.3-27.6V244.7z"/>
</g>
</svg>
