<?xml version="1.0" encoding="utf-8"?>
<!-- Generator: Adobe Illustrator 22.1.0, SVG Export Plug-In . SVG Version: 6.00 Build 0)  -->
<svg version="1.1" id="Слой_1" xmlns="http://www.w3.org/2000/svg" xmlns:xlink="http://www.w3.org/1999/xlink" x="0px" y="0px"
	 viewBox="0 0 364 364" style="enable-background:new 0 0 364 364;" xml:space="preserve">
<g>
	<path d="M328.6,230.1c5.2-16.1,29.6-29.8,29.6-47.6c0-17.8-24.3-31.6-29.6-47.6c-5.4-16.7,6-42-4.1-55.9
		c-10.2-14-37.9-10.9-52-21.1c-13.9-10.1-19.5-37.5-36.1-42.9c-16.1-5.2-36.6,13.5-54.5,13.5s-38.4-18.7-54.5-13.5
		c-16.7,5.4-22.3,32.8-36.1,42.9c-14,10.2-41.8,7.1-52,21.1c-10.1,13.9,1.3,39.3-4.1,55.9c-5.2,16.1-29.6,29.8-29.6,47.6
		c0,17.8,24.3,31.6,29.6,47.6c5.4,16.7-6,42.1,4.1,55.9c10.2,14,37.9,10.9,52,21.1c13.9,10.1,19.5,37.5,36.1,42.9
		c16.1,5.2,36.6-13.5,54.5-13.5s38.4,18.7,54.5,13.5c16.7-5.4,22.3-32.8,36.1-42.9c14-10.2,41.8-7.1,52-21.1
		C334.6,272.2,323.2,246.8,328.6,230.1z M208,242.8c0,5.1-4.1,9.2-9.2,9.2h-97.6c-5.1,0-9.2-4.1-9.2-9.2v-8.1
		c0-16.2,13.1-29.2,29.2-29.2h7.6c3.9,0,7.1-3.2,7.1-7.1c0-1.4-0.6-2.8-1.6-3.8c-4.3-4.2-8-9.9-10.6-16c-0.5,0.3-0.9,0.4-1.5,0.4
		c-4.3,0-9.2-9.4-9.2-15.8c0-6.4,0.6-11.6,4.8-11.6c0.4,0,0.8,0.1,1.1,0.2c0.3-17.3,3.5-38.9,31.1-38.9c26.4,0,30.8,21.6,31.1,38.9
		c0.5-0.1,1.1-0.2,1.6-0.2c4.3,0,4.8,5.2,4.8,11.6c0,6.4-5,15.8-9.2,15.8c-0.7,0-1.3-0.3-1.8-0.7c-2.7,6.2-6.4,11.9-10.8,16.2
		c-1,1-1.6,2.4-1.6,3.9c0,3.9,3.2,7.1,7.1,7.1h7.5c16.1,0,29.2,13.1,29.2,29.3V242.8z M195,169.9h71.3c3.8,0,6.8,3.1,6.8,6.8v10.8
		c0,3.8-3.1,6.9-6.8,6.9h-85.2v-6.5c0.2-0.4,0.4-0.7,0.6-1C188.3,184.9,193.1,177.2,195,169.9z M273.2,232.3c0,3.8-3.1,6.8-6.8,6.8
		h-49.8v-4.5c0-7.4-2.2-14.2-5.8-20h55.6c3.8,0,6.8,3.1,6.8,6.8V232.3z M273.2,142.9c0,3.8-3.1,6.8-6.8,6.8h-72.9
		c-1.1-2.1-2.4-3.8-4.1-4.9c-0.7-8-2.4-14.4-4.8-19.6h81.8c3.8,0,6.8,3.1,6.8,6.8V142.9z"/>
</g>
</svg>
