<?xml version="1.0" encoding="utf-8"?>
<!-- Generator: Adobe Illustrator 22.1.0, SVG Export Plug-In . SVG Version: 6.00 Build 0)  -->
<svg version="1.1" xmlns="http://www.w3.org/2000/svg" xmlns:xlink="http://www.w3.org/1999/xlink" x="0px" y="0px"
	 viewBox="0 0 364 364" style="enable-background:new 0 0 364 364;" xml:space="preserve">
<g id="Слой_1">
	<g>
		<path d="M328.6,230.1c5.2-16.1,29.6-29.8,29.6-47.6c0-17.8-24.3-31.6-29.6-47.6c-5.4-16.7,6-42-4.1-55.9
			c-10.2-14-37.9-10.9-52-21.1c-13.9-10.1-19.5-37.5-36.1-42.9c-16.1-5.2-36.6,13.5-54.5,13.5s-38.4-18.7-54.5-13.5
			c-16.7,5.4-22.3,32.8-36.1,42.9c-14,10.2-41.8,7.1-52,21.1c-10.1,13.9,1.3,39.3-4.1,55.9c-5.2,16.1-29.6,29.8-29.6,47.6
			c0,17.8,24.3,31.6,29.6,47.6c5.4,16.7-6,42.1,4.1,55.9c10.2,14,37.9,10.9,52,21.1c13.9,10.1,19.5,37.5,36.1,42.9
			c16.1,5.2,36.6-13.5,54.5-13.5s38.4,18.7,54.5,13.5c16.7-5.4,22.3-32.8,36.1-42.9c14-10.2,41.8-7.1,52-21.1
			C334.6,272.2,323.2,246.8,328.6,230.1z M123.7,212.2L98,171l0.1,41.2l-11.9,0l-0.2-63.2c12.4,0,12.4,0,12.4,0l6.5,10.6l19.5,31.5
			l-0.1-42.2l11.9,0l0.2,63.2L123.7,212.2z M150,212.1l-0.2-63.2l46.9-0.2l0,10.7l-34.1,0.1l0,14l31.7-0.1l0,10.7l-31.7,0.1
			l0.1,17.2l35.3-0.1l0,10.6L150,212.1z M270.3,211.7l-13.5,0L244,164.5l-12.4,47.3l-13.8,0l-15.3-63.2l13.1,0l9.7,43.4l11.4-43.5
			l15.2,0l11.2,44.1l9.5-44.2l12.8,0L270.3,211.7z"/>
	</g>
</g>
<g id="Слой_2">
</g>
</svg>
