<?xml version="1.0" encoding="utf-8"?>
<!-- Generator: Adobe Illustrator 22.1.0, SVG Export Plug-In . SVG Version: 6.00 Build 0)  -->
<svg version="1.1" id="Слой_1" xmlns="http://www.w3.org/2000/svg" xmlns:xlink="http://www.w3.org/1999/xlink" x="0px" y="0px"
	 viewBox="0 0 364 364" style="enable-background:new 0 0 364 364;" xml:space="preserve">
<g>
	<path d="M131.4,124.5c-9,0-16.2,7.3-16.2,16.2c0,9,7.3,16.2,16.2,16.2c9,0,16.2-7.3,16.2-16.2C147.6,131.7,140.4,124.5,131.4,124.5
		z M131.4,124.5c-9,0-16.2,7.3-16.2,16.2c0,9,7.3,16.2,16.2,16.2c9,0,16.2-7.3,16.2-16.2C147.6,131.7,140.4,124.5,131.4,124.5z
		 M328.8,221.3c5.2-16.1,29.6-29.8,29.6-47.6c0-17.8-24.3-31.6-29.6-47.6c-5.4-16.7,6-42-4.1-55.9c-10.2-14-37.9-10.9-52-21.1
		c-13.9-10.1-19.5-37.5-36.1-42.9c-16.1-5.2-36.6,13.5-54.5,13.5S143.8,0.8,127.7,6.1C111,11.5,105.4,38.9,91.6,49
		c-14,10.2-41.8,7.1-52,21.1C29.5,84,41,109.3,35.6,126C30.3,142.1,6,155.8,6,173.6c0,17.8,24.3,31.6,29.6,47.6
		c5.4,16.7-6,42.1,4.1,55.9c10.2,14,37.9,10.9,52,21.1c13.9,10.1,19.5,37.5,36.1,42.9c16.1,5.2,36.6-13.5,54.5-13.5
		s38.4,18.7,54.5,13.5c16.7-5.4,22.3-32.8,36.1-42.9c14-10.2,41.8-7.1,52-21.1C334.8,263.3,323.3,237.9,328.8,221.3z M92.2,140.7
		c0-21.6,17.5-39.2,39.2-39.2c21.6,0,39.1,17.5,39.1,39.2s-17.5,39.2-39.1,39.2C109.7,179.8,92.2,162.3,92.2,140.7z M138.9,241.7
		c-3.3,4.1-9.4,4.6-13.5,1.3c-2.3-1.9-3.5-4.6-3.5-7.4c0-2.2,0.7-4.3,2.2-6.1l102.7-123.7c3.3-4.1,9.4-4.6,13.4-1.3
		c4.1,3.4,4.6,9.4,1.3,13.5L138.9,241.7z M234.5,245.7c-21.6,0-39.1-17.5-39.1-39.1c0-21.6,17.5-39.2,39.1-39.2
		c21.6,0,39.2,17.5,39.2,39.2C273.7,228.2,256.1,245.7,234.5,245.7z M234.5,190.3c-9,0-16.2,7.3-16.2,16.2c0,9,7.3,16.2,16.2,16.2
		c9,0,16.2-7.3,16.2-16.2C250.7,197.6,243.5,190.3,234.5,190.3z M147.6,140.7c0-9-7.3-16.2-16.2-16.2c-9,0-16.2,7.3-16.2,16.2
		c0,9,7.3,16.2,16.2,16.2C140.4,156.9,147.6,149.7,147.6,140.7z M131.4,124.5c-9,0-16.2,7.3-16.2,16.2c0,9,7.3,16.2,16.2,16.2
		c9,0,16.2-7.3,16.2-16.2C147.6,131.7,140.4,124.5,131.4,124.5z M131.4,124.5c-9,0-16.2,7.3-16.2,16.2c0,9,7.3,16.2,16.2,16.2
		c9,0,16.2-7.3,16.2-16.2C147.6,131.7,140.4,124.5,131.4,124.5z"/>
</g>
</svg>
