<?xml version="1.0" encoding="utf-8"?>
<!-- Generator: Adobe Illustrator 22.1.0, SVG Export Plug-In . SVG Version: 6.00 Build 0)  -->
<svg version="1.1" id="Слой_1" xmlns="http://www.w3.org/2000/svg" xmlns:xlink="http://www.w3.org/1999/xlink" x="0px" y="0px"
	 viewBox="0 0 364 364" style="enable-background:new 0 0 364 364;" xml:space="preserve">
<g>
	<path d="M328.6,230.1c5.2-16.1,29.6-29.8,29.6-47.6c0-17.8-24.3-31.6-29.6-47.6c-5.4-16.7,6-42-4.1-55.9
		c-10.2-14-37.9-10.9-52-21.1c-13.9-10.1-19.5-37.5-36.1-42.9c-16.1-5.2-36.6,13.5-54.5,13.5s-38.4-18.7-54.5-13.5
		c-16.7,5.4-22.3,32.8-36.1,42.9c-14,10.2-41.8,7.1-52,21.1c-10.1,13.9,1.3,39.3-4.1,55.9c-5.2,16.1-29.6,29.8-29.6,47.6
		c0,17.8,24.3,31.6,29.6,47.6c5.4,16.7-6,42.1,4.1,55.9c10.2,14,37.9,10.9,52,21.1c13.9,10.1,19.5,37.5,36.1,42.9
		c16.1,5.2,36.6-13.5,54.5-13.5s38.4,18.7,54.5,13.5c16.7-5.4,22.3-32.8,36.1-42.9c14-10.2,41.8-7.1,52-21.1
		C334.6,272.2,323.2,246.8,328.6,230.1z M143.8,217.3l-27.6,9.7l-8.3,2.8c-2.8,0.9-5.1,2.3-6.5,3.2c-1.8,1.4-0.9,3.2,0.9,4.6
		l1.1,0.5l1.2,0.4l1.4,0.4l1,0.2l1.1,0.3l1.1,0.1l1.2,0.1l1.1,0l1.3,0h1.4l1-0.1l1.2-0.1l1.6-0.2l1.6-0.2l1.8-0.3l0.8-0.1l0.6-0.1
		l0.4-0.1l0.7-0.2l1.6-0.5l2.3-0.9l8.3-3.2l7.4-1.8v19.3c-18.9,2.8-37.3,1.8-55.7-3.2C73.8,244,66,238.9,65.5,232
		c0-5.1,6-10.1,18-15.2l7.8-3.2l45.1-16.1l7.4-2.3V217.3z M193.1,123.8c-1.4,1.8-1.8,4.6-1.8,8.3V273l-36.4-11v-169
		c13.8,2.8,30.9,7.4,50.7,14.3c16.6,5.5,27.2,12.4,33.6,20.7c6.9,7.8,9.7,19.8,9.7,35.5c0,14.7-4.1,24.9-12.4,30.4
		c-7.8,5.5-18.4,5.1-30.4-0.5v-56.6c0-7.8-2.8-12.9-7.8-14.3C195.8,121.5,194.5,121.5,193.1,123.8z M282,239.8l-6.5,2.8L223,261.5
		l-22.1,7.8v-22.1l47-16.1l11.5-4.6c4.6-1.8,6.9-3.2,6.5-5.1c-0.5-1.4-2.3-2.8-5.5-3.2c0,0-0.9,0-1.8-0.5c-1.4,0-2.8-0.5-4.6-0.5
		c-1.4,0-3.2,0-5.1,0.5c-3.7,0.9-8.8,2.3-8.8,2.3l-13.4,4.6l-25.8,8.8v-22.6c12.9-4.1,25.3-6,37.3-6.4c3.2-0.5,6.9-0.5,10.1-0.5
		c10.1,0.5,20.7,2.3,31.3,5.5c12.4,4.1,19.3,8.8,19.8,14.7C299.9,230.2,294.4,235.2,282,239.8z"/>
</g>
</svg>
