<?xml version="1.0" encoding="utf-8"?>
<!-- Generator: Adobe Illustrator 22.1.0, SVG Export Plug-In . SVG Version: 6.00 Build 0)  -->
<svg version="1.1" id="Слой_1" xmlns="http://www.w3.org/2000/svg" xmlns:xlink="http://www.w3.org/1999/xlink" x="0px" y="0px"
	 viewBox="0 0 364 364" style="enable-background:new 0 0 364 364;" xml:space="preserve">
<g>
	<path d="M227.1,136.8c-10.3-10.3-27.1-10.3-37.5,0c-10.3,10.3-10.3,27.1,0,37.5c10.3,10.3,27.1,10.3,37.5,0
		C237.5,164,237.5,147.2,227.1,136.8z M219.6,166.8c-6.2,6.2-16.3,6.2-22.5,0c-6.2-6.2-6.2-16.3,0-22.5c6.2-6.2,16.3-6.2,22.5,0
		C225.8,150.5,225.8,160.6,219.6,166.8z M227.1,136.8c-10.3-10.3-27.1-10.3-37.5,0c-10.3,10.3-10.3,27.1,0,37.5
		c10.3,10.3,27.1,10.3,37.5,0C237.5,164,237.5,147.2,227.1,136.8z M219.6,166.8c-6.2,6.2-16.3,6.2-22.5,0c-6.2-6.2-6.2-16.3,0-22.5
		c6.2-6.2,16.3-6.2,22.5,0C225.8,150.5,225.8,160.6,219.6,166.8z M227.1,136.8c-10.3-10.3-27.1-10.3-37.5,0
		c-10.3,10.3-10.3,27.1,0,37.5c10.3,10.3,27.1,10.3,37.5,0C237.5,164,237.5,147.2,227.1,136.8z M219.6,166.8
		c-6.2,6.2-16.3,6.2-22.5,0c-6.2-6.2-6.2-16.3,0-22.5c6.2-6.2,16.3-6.2,22.5,0C225.8,150.5,225.8,160.6,219.6,166.8z M227.1,136.8
		c-10.3-10.3-27.1-10.3-37.5,0c-10.3,10.3-10.3,27.1,0,37.5c10.3,10.3,27.1,10.3,37.5,0C237.5,164,237.5,147.2,227.1,136.8z
		 M219.6,166.8c-6.2,6.2-16.3,6.2-22.5,0c-6.2-6.2-6.2-16.3,0-22.5c6.2-6.2,16.3-6.2,22.5,0C225.8,150.5,225.8,160.6,219.6,166.8z
		 M227.1,136.8c-10.3-10.3-27.1-10.3-37.5,0c-10.3,10.3-10.3,27.1,0,37.5c10.3,10.3,27.1,10.3,37.5,0
		C237.5,164,237.5,147.2,227.1,136.8z M219.6,166.8c-6.2,6.2-16.3,6.2-22.5,0c-6.2-6.2-6.2-16.3,0-22.5c6.2-6.2,16.3-6.2,22.5,0
		C225.8,150.5,225.8,160.6,219.6,166.8z M227.1,136.8c-10.3-10.3-27.1-10.3-37.5,0c-10.3,10.3-10.3,27.1,0,37.5
		c10.3,10.3,27.1,10.3,37.5,0C237.5,164,237.5,147.2,227.1,136.8z M219.6,166.8c-6.2,6.2-16.3,6.2-22.5,0c-6.2-6.2-6.2-16.3,0-22.5
		c6.2-6.2,16.3-6.2,22.5,0C225.8,150.5,225.8,160.6,219.6,166.8z M227.1,136.8c-10.3-10.3-27.1-10.3-37.5,0
		c-10.3,10.3-10.3,27.1,0,37.5c10.3,10.3,27.1,10.3,37.5,0C237.5,164,237.5,147.2,227.1,136.8z M219.6,166.8
		c-6.2,6.2-16.3,6.2-22.5,0c-6.2-6.2-6.2-16.3,0-22.5c6.2-6.2,16.3-6.2,22.5,0C225.8,150.5,225.8,160.6,219.6,166.8z M227.1,136.8
		c-10.3-10.3-27.1-10.3-37.5,0c-10.3,10.3-10.3,27.1,0,37.5c10.3,10.3,27.1,10.3,37.5,0C237.5,164,237.5,147.2,227.1,136.8z
		 M219.6,166.8c-6.2,6.2-16.3,6.2-22.5,0c-6.2-6.2-6.2-16.3,0-22.5c6.2-6.2,16.3-6.2,22.5,0C225.8,150.5,225.8,160.6,219.6,166.8z
		 M227.1,136.8c-10.3-10.3-27.1-10.3-37.5,0c-10.3,10.3-10.3,27.1,0,37.5c10.3,10.3,27.1,10.3,37.5,0
		C237.5,164,237.5,147.2,227.1,136.8z M219.6,166.8c-6.2,6.2-16.3,6.2-22.5,0c-6.2-6.2-6.2-16.3,0-22.5c6.2-6.2,16.3-6.2,22.5,0
		C225.8,150.5,225.8,160.6,219.6,166.8z M227.1,136.8c-10.3-10.3-27.1-10.3-37.5,0c-10.3,10.3-10.3,27.1,0,37.5
		c10.3,10.3,27.1,10.3,37.5,0C237.5,164,237.5,147.2,227.1,136.8z M219.6,166.8c-6.2,6.2-16.3,6.2-22.5,0c-6.2-6.2-6.2-16.3,0-22.5
		c6.2-6.2,16.3-6.2,22.5,0C225.8,150.5,225.8,160.6,219.6,166.8z M227.1,136.8c-10.3-10.3-27.1-10.3-37.5,0
		c-10.3,10.3-10.3,27.1,0,37.5c10.3,10.3,27.1,10.3,37.5,0C237.5,164,237.5,147.2,227.1,136.8z M219.6,166.8
		c-6.2,6.2-16.3,6.2-22.5,0c-6.2-6.2-6.2-16.3,0-22.5c6.2-6.2,16.3-6.2,22.5,0C225.8,150.5,225.8,160.6,219.6,166.8z M227.1,136.8
		c-10.3-10.3-27.1-10.3-37.5,0c-10.3,10.3-10.3,27.1,0,37.5c10.3,10.3,27.1,10.3,37.5,0C237.5,164,237.5,147.2,227.1,136.8z
		 M219.6,166.8c-6.2,6.2-16.3,6.2-22.5,0c-6.2-6.2-6.2-16.3,0-22.5c6.2-6.2,16.3-6.2,22.5,0C225.8,150.5,225.8,160.6,219.6,166.8z
		 M227.1,136.8c-10.3-10.3-27.1-10.3-37.5,0c-10.3,10.3-10.3,27.1,0,37.5c10.3,10.3,27.1,10.3,37.5,0
		C237.5,164,237.5,147.2,227.1,136.8z M219.6,166.8c-6.2,6.2-16.3,6.2-22.5,0c-6.2-6.2-6.2-16.3,0-22.5c6.2-6.2,16.3-6.2,22.5,0
		C225.8,150.5,225.8,160.6,219.6,166.8z M227.1,136.8c-10.3-10.3-27.1-10.3-37.5,0c-10.3,10.3-10.3,27.1,0,37.5
		c10.3,10.3,27.1,10.3,37.5,0C237.5,164,237.5,147.2,227.1,136.8z M219.6,166.8c-6.2,6.2-16.3,6.2-22.5,0c-6.2-6.2-6.2-16.3,0-22.5
		c6.2-6.2,16.3-6.2,22.5,0C225.8,150.5,225.8,160.6,219.6,166.8z M328.6,230.1c5.2-16.1,29.6-29.8,29.6-47.6
		c0-17.8-24.3-31.6-29.6-47.6c-5.4-16.7,6-42-4.1-55.9c-10.2-14-37.9-10.9-52-21.1c-13.9-10.1-19.5-37.5-36.1-42.9
		c-16.1-5.2-36.6,13.5-54.5,13.5s-38.4-18.7-54.5-13.5c-16.7,5.4-22.3,32.8-36.1,42.9c-14,10.2-41.8,7.1-52,21.1
		c-10.1,13.9,1.3,39.3-4.1,55.9c-5.2,16.1-29.6,29.8-29.6,47.6c0,17.8,24.3,31.6,29.6,47.6c5.4,16.7-6,42.1,4.1,55.9
		c10.2,14,37.9,10.9,52,21.1c13.9,10.1,19.5,37.5,36.1,42.9c16.1,5.2,36.6-13.5,54.5-13.5s38.4,18.7,54.5,13.5
		c16.7-5.4,22.3-32.8,36.1-42.9c14-10.2,41.8-7.1,52-21.1C334.6,272.2,323.2,246.8,328.6,230.1z M92.7,183.1
		c-1.2-2.1-0.9-4.7,0.8-6.4l15-15c12.8-12.7,27.6-14.3,32.1-11.5c-7.8,10.1-15.1,21.3-21.9,33.5c-4.8-1.2-11.9-0.3-20,1.9
		C96.3,186.2,93.9,185.1,92.7,183.1z M126.9,190.7l8.3,8.3c-0.4,0.4-0.8,0.5-1.1,0.9c-5.3,5.3-9.7,10.1-13.4,14.5l-1.3-1.3
		c-1.6-1.6-2-4.1-1-6.1C119.2,205.5,122,199.5,126.9,190.7z M120.7,250.5c-2,1-4.5,0.6-6.1-1c-1.6-1.6-2-4-1-6
		c3.4-7.1,11.1-19.1,28-36c5.1-5,15.8-8.5,19.7-4.7l0,0c3.6,3.6,0.9,14.1-4.7,19.6C139.4,239.5,127.6,247.1,120.7,250.5z M157.5,246
		c-2,1.1-4.5,0.7-6.2-1l-1.8-1.8c4.4-3.7,9.2-8.1,14.5-13.4c0.4-0.4,0.6-0.8,0.9-1.1l8.7,8.7C164.5,242.6,160.2,244.6,157.5,246z
		 M202.8,255.5l-15,15c-1.6,1.6-4.1,2-6.1,1c-2-1-3.2-3.2-2.9-5.5c1.8-11.8,2.2-15.9,1.5-20c10.7-6,22.2-13.2,33.5-21.8
		C216.4,228.9,214.4,243.9,202.8,255.5z M183.1,232l-12.4-12.3c3.3-8.2,4.2-18.1-2.1-24.4c-6.3-6.3-16.2-5.4-24.4-2.1l-12-12
		c24.1-40,54.5-68.5,86.3-81.5c1.7,10.3,7.1,20.9,15.9,29.7c9,9,19.9,14.4,30.4,15.9C249.8,184.2,213.9,213.4,183.1,232z M268.5,135
		c-8.9-0.9-18.6-5.4-26.4-13.2c-7.7-7.7-12.2-17.1-13.2-25.9c12.7-3.9,25.7-5.5,38.7-4.5c2.6,0.2,4.7,2.3,4.9,4.9
		C273.5,110.2,271.9,123,268.5,135z M189.7,136.8c-10.3,10.3-10.3,27.1,0,37.5c10.3,10.3,27.1,10.3,37.5,0
		c10.3-10.3,10.3-27.1,0-37.5C216.8,126.5,200,126.5,189.7,136.8z M219.6,166.8c-6.2,6.2-16.3,6.2-22.5,0c-6.2-6.2-6.2-16.3,0-22.5
		c6.2-6.2,16.3-6.2,22.5,0C225.8,150.5,225.8,160.6,219.6,166.8z M227.1,136.8c-10.3-10.3-27.1-10.3-37.5,0
		c-10.3,10.3-10.3,27.1,0,37.5c10.3,10.3,27.1,10.3,37.5,0C237.5,164,237.5,147.2,227.1,136.8z M219.6,166.8
		c-6.2,6.2-16.3,6.2-22.5,0c-6.2-6.2-6.2-16.3,0-22.5c6.2-6.2,16.3-6.2,22.5,0C225.8,150.5,225.8,160.6,219.6,166.8z M227.1,136.8
		c-10.3-10.3-27.1-10.3-37.5,0c-10.3,10.3-10.3,27.1,0,37.5c10.3,10.3,27.1,10.3,37.5,0C237.5,164,237.5,147.2,227.1,136.8z
		 M219.6,166.8c-6.2,6.2-16.3,6.2-22.5,0c-6.2-6.2-6.2-16.3,0-22.5c6.2-6.2,16.3-6.2,22.5,0C225.8,150.5,225.8,160.6,219.6,166.8z
		 M227.1,136.8c-10.3-10.3-27.1-10.3-37.5,0c-10.3,10.3-10.3,27.1,0,37.5c10.3,10.3,27.1,10.3,37.5,0
		C237.5,164,237.5,147.2,227.1,136.8z M219.6,166.8c-6.2,6.2-16.3,6.2-22.5,0c-6.2-6.2-6.2-16.3,0-22.5c6.2-6.2,16.3-6.2,22.5,0
		C225.8,150.5,225.8,160.6,219.6,166.8z M227.1,136.8c-10.3-10.3-27.1-10.3-37.5,0c-10.3,10.3-10.3,27.1,0,37.5
		c10.3,10.3,27.1,10.3,37.5,0C237.5,164,237.5,147.2,227.1,136.8z M219.6,166.8c-6.2,6.2-16.3,6.2-22.5,0c-6.2-6.2-6.2-16.3,0-22.5
		c6.2-6.2,16.3-6.2,22.5,0C225.8,150.5,225.8,160.6,219.6,166.8z M227.1,136.8c-10.3-10.3-27.1-10.3-37.5,0
		c-10.3,10.3-10.3,27.1,0,37.5c10.3,10.3,27.1,10.3,37.5,0C237.5,164,237.5,147.2,227.1,136.8z M219.6,166.8
		c-6.2,6.2-16.3,6.2-22.5,0c-6.2-6.2-6.2-16.3,0-22.5c6.2-6.2,16.3-6.2,22.5,0C225.8,150.5,225.8,160.6,219.6,166.8z M227.1,136.8
		c-10.3-10.3-27.1-10.3-37.5,0c-10.3,10.3-10.3,27.1,0,37.5c10.3,10.3,27.1,10.3,37.5,0C237.5,164,237.5,147.2,227.1,136.8z
		 M219.6,166.8c-6.2,6.2-16.3,6.2-22.5,0c-6.2-6.2-6.2-16.3,0-22.5c6.2-6.2,16.3-6.2,22.5,0C225.8,150.5,225.8,160.6,219.6,166.8z
		 M227.1,136.8c-10.3-10.3-27.1-10.3-37.5,0c-10.3,10.3-10.3,27.1,0,37.5c10.3,10.3,27.1,10.3,37.5,0
		C237.5,164,237.5,147.2,227.1,136.8z M219.6,166.8c-6.2,6.2-16.3,6.2-22.5,0c-6.2-6.2-6.2-16.3,0-22.5c6.2-6.2,16.3-6.2,22.5,0
		C225.8,150.5,225.8,160.6,219.6,166.8z M227.1,136.8c-10.3-10.3-27.1-10.3-37.5,0c-10.3,10.3-10.3,27.1,0,37.5
		c10.3,10.3,27.1,10.3,37.5,0C237.5,164,237.5,147.2,227.1,136.8z M219.6,166.8c-6.2,6.2-16.3,6.2-22.5,0c-6.2-6.2-6.2-16.3,0-22.5
		c6.2-6.2,16.3-6.2,22.5,0C225.8,150.5,225.8,160.6,219.6,166.8z M227.1,136.8c-10.3-10.3-27.1-10.3-37.5,0
		c-10.3,10.3-10.3,27.1,0,37.5c10.3,10.3,27.1,10.3,37.5,0C237.5,164,237.5,147.2,227.1,136.8z M219.6,166.8
		c-6.2,6.2-16.3,6.2-22.5,0c-6.2-6.2-6.2-16.3,0-22.5c6.2-6.2,16.3-6.2,22.5,0C225.8,150.5,225.8,160.6,219.6,166.8z M227.1,136.8
		c-10.3-10.3-27.1-10.3-37.5,0c-10.3,10.3-10.3,27.1,0,37.5c10.3,10.3,27.1,10.3,37.5,0C237.5,164,237.5,147.2,227.1,136.8z
		 M219.6,166.8c-6.2,6.2-16.3,6.2-22.5,0c-6.2-6.2-6.2-16.3,0-22.5c6.2-6.2,16.3-6.2,22.5,0C225.8,150.5,225.8,160.6,219.6,166.8z
		 M227.1,136.8c-10.3-10.3-27.1-10.3-37.5,0c-10.3,10.3-10.3,27.1,0,37.5c10.3,10.3,27.1,10.3,37.5,0
		C237.5,164,237.5,147.2,227.1,136.8z M219.6,166.8c-6.2,6.2-16.3,6.2-22.5,0c-6.2-6.2-6.2-16.3,0-22.5c6.2-6.2,16.3-6.2,22.5,0
		C225.8,150.5,225.8,160.6,219.6,166.8z M227.1,136.8c-10.3-10.3-27.1-10.3-37.5,0c-10.3,10.3-10.3,27.1,0,37.5
		c10.3,10.3,27.1,10.3,37.5,0C237.5,164,237.5,147.2,227.1,136.8z M219.6,166.8c-6.2,6.2-16.3,6.2-22.5,0c-6.2-6.2-6.2-16.3,0-22.5
		c6.2-6.2,16.3-6.2,22.5,0C225.8,150.5,225.8,160.6,219.6,166.8z M227.1,136.8c-10.3-10.3-27.1-10.3-37.5,0
		c-10.3,10.3-10.3,27.1,0,37.5c10.3,10.3,27.1,10.3,37.5,0C237.5,164,237.5,147.2,227.1,136.8z M219.6,166.8
		c-6.2,6.2-16.3,6.2-22.5,0c-6.2-6.2-6.2-16.3,0-22.5c6.2-6.2,16.3-6.2,22.5,0C225.8,150.5,225.8,160.6,219.6,166.8z M227.1,136.8
		c-10.3-10.3-27.1-10.3-37.5,0c-10.3,10.3-10.3,27.1,0,37.5c10.3,10.3,27.1,10.3,37.5,0C237.5,164,237.5,147.2,227.1,136.8z
		 M219.6,166.8c-6.2,6.2-16.3,6.2-22.5,0c-6.2-6.2-6.2-16.3,0-22.5c6.2-6.2,16.3-6.2,22.5,0C225.8,150.5,225.8,160.6,219.6,166.8z"
		/>
</g>
</svg>
