<?xml version="1.0" encoding="utf-8"?>
<!-- Generator: Adobe Illustrator 22.1.0, SVG Export Plug-In . SVG Version: 6.00 Build 0)  -->
<svg version="1.1" id="Слой_1" xmlns="http://www.w3.org/2000/svg" xmlns:xlink="http://www.w3.org/1999/xlink" x="0px" y="0px"
	 viewBox="0 0 364 364" style="enable-background:new 0 0 364 364;" xml:space="preserve">
<style type="text/css">
	.st0{fill:#FFFFFF;}
</style>
<g>
	<path d="M328.6,230.1c5.2-16.1,29.6-29.8,29.6-47.6s-24.3-31.6-29.6-47.6c-5.4-16.7,6-42.1-4.1-55.9c-10.2-14-37.9-10.9-52-21.1
		c-13.9-10.1-19.5-37.5-36.1-42.9c-16.1-5.2-36.6,13.5-54.4,13.5s-38.4-18.7-54.4-13.5c-16.7,5.4-22.3,32.8-36.1,42.9
		c-14,10.2-41.8,7.1-52,21.1c-10.1,13.9,1.3,39.3-4.1,55.9c-5.2,16.1-29.6,29.8-29.6,47.6s24.3,31.6,29.6,47.6
		c5.4,16.7-6,42.1,4.1,55.9c10.2,14,37.9,10.9,52,21.1c13.9,10.1,19.5,37.5,36.1,42.9c16.1,5.2,36.6-13.5,54.4-13.5
		s38.4,18.7,54.5,13.5c16.7-5.4,22.3-32.8,36.1-42.9c14-10.2,41.8-7.1,52-21.1C334.6,272.2,323.2,246.8,328.6,230.1z"/>
</g>
<path class="st0" d="M269.5,173.7c3.6-3.5,4.9-8.6,3.3-13.4c-1.6-4.8-5.6-8.2-10.6-8.9l-44.2-6.4c-1.9-0.3-3.5-1.5-4.3-3.2l-19.8-40
	c-2.2-4.5-6.7-7.3-11.7-7.3c-5,0-9.5,2.8-11.7,7.3l-19.8,40c-0.8,1.7-2.5,2.9-4.4,3.2l-44.2,6.4c-5,0.7-9,4.1-10.6,8.9
	c-1.5,4.8-0.3,9.9,3.3,13.4l32,31.2c1.4,1.3,2,3.2,1.7,5.1l-7.5,44c-0.7,3.9,0.3,7.6,2.9,10.6c3.9,4.6,10.7,6,16.1,3.2l39.5-20.8
	c1.7-0.9,3.7-0.9,5.4,0l39.5,20.8c1.9,1,4,1.5,6.1,1.5c3.9,0,7.5-1.7,10-4.7c2.5-3,3.5-6.7,2.9-10.6l-7.5-44
	c-0.3-1.9,0.3-3.8,1.7-5.1L269.5,173.7z"/>
</svg>
