<?xml version="1.0" encoding="utf-8"?>
<!-- Generator: Adobe Illustrator 22.1.0, SVG Export Plug-In . SVG Version: 6.00 Build 0)  -->
<svg version="1.1" id="Слой_1" xmlns="http://www.w3.org/2000/svg" xmlns:xlink="http://www.w3.org/1999/xlink" x="0px" y="0px"
	 viewBox="0 0 364 364" style="enable-background:new 0 0 364 364;" xml:space="preserve">
<g>
	<path d="M328.6,230.1c5.2-16.1,29.6-29.8,29.6-47.6c0-17.8-24.3-31.6-29.6-47.6c-5.4-16.7,6-42-4.1-55.9
		c-10.2-14-37.9-10.9-52-21.1c-13.9-10.1-19.5-37.5-36.1-42.9c-16.1-5.2-36.6,13.5-54.5,13.5s-38.4-18.7-54.5-13.5
		c-16.7,5.4-22.3,32.8-36.1,42.9c-14,10.2-41.8,7.1-52,21.1c-10.1,13.9,1.3,39.3-4.1,55.9c-5.2,16.1-29.6,29.8-29.6,47.6
		c0,17.8,24.3,31.6,29.6,47.6c5.4,16.7-6,42.1,4.1,55.9c10.2,14,37.9,10.9,52,21.1c13.9,10.1,19.5,37.5,36.1,42.9
		c16.1,5.2,36.6-13.5,54.5-13.5s38.4,18.7,54.5,13.5c16.7-5.4,22.3-32.8,36.1-42.9c14-10.2,41.8-7.1,52-21.1
		C334.6,272.2,323.2,246.8,328.6,230.1z M141,100.2c-1,1.7-1.9,3.5-2.8,5.3c-3.5,7.1-6.5,15.1-8.8,23.5h-21.6
		C116.3,116.9,127.8,107,141,100.2z M97.2,149H125c-1.2,7.3-1.9,14.9-2.3,22.7H91.7C92.5,163.7,94.4,156.1,97.2,149z M91.7,191.5
		h31.1c0.4,7.8,1.1,15.4,2.3,22.7H97.2C94.4,207,92.5,199.4,91.7,191.5z M107.8,234.1h21.6c2.4,8.5,5.3,16.4,8.8,23.5
		c0.9,1.9,1.9,3.6,2.9,5.3C127.8,256.2,116.3,246.2,107.8,234.1z M172.6,269.7c-8.6-5.6-16.8-18.1-22.5-35.6h22.5V269.7z
		 M172.6,214.2h-27.4c-1.3-7.1-2.1-14.7-2.5-22.7h29.9V214.2z M172.6,171.6h-29.9c0.4-8,1.3-15.6,2.5-22.7h27.4V171.6z M172.6,129
		h-22.5c5.7-17.5,13.9-30,22.5-35.5V129z M257.2,129h-21.6c-2.4-8.5-5.3-16.4-8.8-23.5c-0.9-1.9-1.9-3.6-2.8-5.3
		C237.3,107,248.7,116.9,257.2,129z M192.5,93.5c8.6,5.6,16.8,18.1,22.5,35.5h-22.5V93.5z M192.5,269.7v-35.6h22.5
		C209.3,251.6,201,264.1,192.5,269.7z M219.8,214.2h-27.4v-22.7h29.9C222,199.5,221.1,207.1,219.8,214.2z M192.5,171.6V149h27.4
		c1.3,7.1,2.1,14.7,2.5,22.7H192.5z M224,263c1-1.7,1.9-3.5,2.8-5.3c3.5-7.1,6.5-15,8.8-23.5h21.6C248.7,246.2,237.3,256.2,224,263z
		 M267.8,214.2H240c1.2-7.3,1.9-14.9,2.3-22.7h31.1C272.5,199.4,270.6,207,267.8,214.2z M242.3,171.6c-0.4-7.8-1.1-15.4-2.3-22.7
		h27.9c2.8,7.2,4.6,14.8,5.5,22.7H242.3z"/>
</g>
</svg>
