<?xml version="1.0" encoding="utf-8"?>
<!-- Generator: Adobe Illustrator 22.1.0, SVG Export Plug-In . SVG Version: 6.00 Build 0)  -->
<svg version="1.1" id="Слой_1" xmlns="http://www.w3.org/2000/svg" xmlns:xlink="http://www.w3.org/1999/xlink" x="0px" y="0px"
	 viewBox="0 0 52 52" style="enable-background:new 0 0 52 52;" xml:space="preserve">
<g id="surface1" >
	<path fill="#fff" d="M20,6.6v36.7l7.9,2.4V15.1c0-0.8,0.1-1.4,0.4-1.8c0.3-0.5,0.6-0.5,1.1-0.3c1.1,0.3,1.7,1.4,1.7,3.1v12.3
		c2.6,1.2,4.9,1.3,6.6,0.1c1.8-1.2,2.7-3.4,2.7-6.6c0-3.4-0.6-6-2.1-7.7c-1.4-1.8-3.7-3.3-7.3-4.5C26.7,8.2,23,7.2,20,6.6z
		 M17.6,28.8L16,29.3l-9.8,3.5l-1.7,0.7c-2.6,1.1-3.9,2.2-3.9,3.3c0.1,1.5,1.8,2.6,4.9,3.4c4,1.1,8,1.3,12.1,0.7v-4.2L16,37.1
		l-1.8,0.7L13.7,38l-0.4,0.1l-0.1,0l-0.1,0l-0.1,0l-0.2,0l-0.4,0.1l-0.3,0l-0.4,0.1l-0.3,0l-0.2,0h-0.3l-0.3,0l-0.2,0l-0.3,0l-0.2,0
		l-0.2-0.1l-0.2-0.1l-0.3-0.1l-0.3-0.1L8.6,38c-0.4-0.3-0.6-0.7-0.2-1c0.3-0.2,0.8-0.5,1.4-0.7l1.8-0.6l6-2.1
		C17.6,33.6,17.6,28.8,17.6,28.8z M40.3,30.7c-0.7,0-1.5,0-2.2,0.1c-2.6,0.1-5.3,0.5-8.1,1.4v4.9l5.6-1.9l2.9-1c0,0,1.1-0.3,1.9-0.5
		c0.4-0.1,0.8-0.1,1.1-0.1c0.4,0,0.7,0.1,1,0.1c0.2,0.1,0.4,0.1,0.4,0.1c0.7,0.1,1.1,0.4,1.2,0.7c0.1,0.4-0.4,0.7-1.4,1.1l-2.5,1
		L30,40.1v4.8l4.8-1.7l11.4-4.1l1.4-0.6c2.7-1,3.9-2.1,3.8-3.4c-0.1-1.3-1.6-2.3-4.3-3.2C44.8,31.2,42.5,30.8,40.3,30.7z"/>
</g>
</svg>
