<?xml version="1.0" encoding="utf-8"?>
<!-- Generator: Adobe Illustrator 22.1.0, SVG Export Plug-In . SVG Version: 6.00 Build 0)  -->
<svg version="1.1" id="Слой_1" xmlns="http://www.w3.org/2000/svg" xmlns:xlink="http://www.w3.org/1999/xlink" x="0px" y="0px"
	 viewBox="0 0 364 364" style="enable-background:new 0 0 364 364;" xml:space="preserve">
<g>
	<path d="M328.6,230.1c5.2-16.1,29.6-29.8,29.6-47.6c0-17.8-24.3-31.6-29.6-47.6c-5.4-16.7,6-42-4.1-55.9
		c-10.2-14-37.9-10.9-52-21.1c-13.9-10.1-19.5-37.5-36.1-42.9c-16.1-5.2-36.6,13.5-54.5,13.5s-38.4-18.7-54.5-13.5
		c-16.7,5.4-22.3,32.8-36.1,42.9c-14,10.2-41.8,7.1-52,21.1c-10.1,13.9,1.3,39.3-4.1,55.9c-5.2,16.1-29.6,29.8-29.6,47.6
		c0,17.8,24.3,31.6,29.6,47.6c5.4,16.7-6,42.1,4.1,55.9c10.2,14,37.9,10.9,52,21.1c13.9,10.1,19.5,37.5,36.1,42.9
		c16.1,5.2,36.6-13.5,54.5-13.5s38.4,18.7,54.5,13.5c16.7-5.4,22.3-32.8,36.1-42.9c14-10.2,41.8-7.1,52-21.1
		C334.6,272.2,323.2,246.8,328.6,230.1z M177.2,272c-10.5,0-18.6-8.8-18.6-18.9c0-10.3,8.3-18.9,18.6-18.9s18.9,8.6,18.9,18.9
		C196.1,263.2,187.7,272,177.2,272z M205.1,176.5c-13.5,10.5-13.8,17.9-13.8,30.7c0,4.7-2.5,10.1-14.5,10.1
		c-10.1,0-13.5-3.7-13.5-16.4c0-21.1,9.3-31.2,16.4-37.3c8.1-6.9,21.8-14.5,21.8-27.7c0-11.3-9.8-16.7-22.1-16.7
		c-25,0-19.6,18.9-32.9,18.9c-6.6,0-14.7-4.4-14.7-14c0-13.3,15.2-32.9,48.3-32.9c31.4,0,52.3,17.4,52.3,40.5
		S211.8,171.4,205.1,176.5z"/>
</g>
</svg>
